<?xml version="1.0" encoding="UTF-8"?> <svg xmlns="http://www.w3.org/2000/svg" width="64" height="64" viewBox="0 0 64 64" fill="none"><path fill-rule="evenodd" clip-rule="evenodd" d="M1.43613 33.3901C1.43613 32.6224 2.05849 32 2.82622 32H3.86094C5.62259 32 6.67738 33.1843 7.28053 34.2853C7.68258 35.0192 7.97341 35.8703 8.20092 36.641C8.26253 36.6361 8.32494 36.6336 8.38808 36.6336H31.5513C33.09 36.6336 34.2012 38.1061 33.7792 39.5858L30.3917 51.4649C29.7673 53.6543 27.7667 55.1641 25.4901 55.1641H14.4655C12.17 55.1641 10.1578 53.6297 9.55024 51.416L8.14071 46.2801L5.80795 38.4051L5.80417 38.3913C5.51558 37.3389 5.24473 36.3557 4.84228 35.6211C4.45145 34.9077 4.13989 34.7802 3.86094 34.7802H2.82622C2.05849 34.7802 1.43613 34.1578 1.43613 33.3901ZM17.4462 59.7554C17.4462 61.2413 16.2416 62.4459 14.7557 62.4459C13.2697 62.4459 12.0651 61.2413 12.0651 59.7554C12.0651 58.2694 13.2697 57.0648 14.7557 57.0648C16.2416 57.0648 17.4462 58.2694 17.4462 59.7554ZM25.4912 62.4459C26.9771 62.4459 28.1817 61.2413 28.1817 59.7554C28.1817 58.2694 26.9771 57.0648 25.4912 57.0648C24.0053 57.0648 22.8007 58.2694 22.8007 59.7554C22.8007 61.2413 24.0053 62.4459 25.4912 62.4459Z" fill="#207DE9"></path><circle cx="37.5501" cy="26.5344" r="23.9855" fill="#DBF3F1"></circle><path fill-rule="evenodd" clip-rule="evenodd" d="M30.9255 49.5931C24.2042 47.6657 18.6916 42.8791 15.7882 36.6338H31.5513C33.09 36.6338 34.2012 38.1062 33.7793 39.586L30.9255 49.5931Z" fill="#6ADFD7"></path><path fill-rule="evenodd" clip-rule="evenodd" d="M39.1501 17.0619C39.1501 16.1783 38.4338 15.4619 37.5501 15.4619C36.6664 15.4619 35.9501 16.1783 35.9501 17.0619L35.9501 24.933L28.0789 24.933C27.1953 24.933 26.4789 25.6494 26.4789 26.533C26.4789 27.4167 27.1953 28.133 28.0789 28.133L35.9501 28.133L35.9501 36.0041C35.9501 36.8878 36.6664 37.6041 37.5501 37.6041C38.4337 37.6041 39.1501 36.8878 39.1501 36.0041L39.1501 28.133L47.0212 28.133C47.9048 28.133 48.6212 27.4167 48.6212 26.533C48.6212 25.6494 47.9048 24.933 47.0212 24.933L39.1501 24.933L39.1501 17.0619Z" fill="#6ADFD7"></path></svg> 